<svg width="132" height="146" viewBox="0 0 132 146" fill="none" xmlns="http://www.w3.org/2000/svg">
<path d="M10.375 49.5333H121.042C126.208 49.5333 130.417 53.7488 130.417 58.9333V86.6667C130.417 91.8512 126.208 96.0667 121.042 96.0667H10.375C5.20878 96.0667 1 91.8512 1 86.6667V58.9333C1 53.7488 5.20878 49.5333 10.375 49.5333ZM121.042 91.1333C123.505 91.1333 125.5 89.1296 125.5 86.6667V58.9333C125.5 56.4704 123.505 54.4667 121.042 54.4667H10.375C7.91214 54.4667 5.91667 56.4704 5.91667 58.9333V86.6667C5.91667 89.1296 7.91214 91.1333 10.375 91.1333H121.042ZM75.0833 72.8C75.0833 74.1643 73.9801 75.2667 72.625 75.2667C71.2699 75.2667 70.1667 74.1643 70.1667 72.8C70.1667 71.4357 71.2699 70.3333 72.625 70.3333C73.9803 70.3333 75.0833 71.4352 75.0833 72.8ZM61.25 72.8C61.25 74.1643 60.1468 75.2667 58.7917 75.2667C57.4365 75.2667 56.3333 74.1643 56.3333 72.8C56.3333 71.4357 57.4365 70.3333 58.7917 70.3333C60.1469 70.3333 61.25 71.4352 61.25 72.8ZM47.4167 72.8C47.4167 74.1643 46.3135 75.2667 44.9583 75.2667C43.6032 75.2667 42.5 74.1643 42.5 72.8C42.5 71.4357 43.6032 70.3333 44.9583 70.3333C46.3136 70.3333 47.4167 71.4352 47.4167 72.8ZM33.5833 72.8C33.5833 74.1643 32.4801 75.2667 31.125 75.2667C29.7699 75.2667 28.6667 74.1643 28.6667 72.8C28.6667 71.4357 29.7699 70.3333 31.125 70.3333C32.4803 70.3333 33.5833 71.4352 33.5833 72.8ZM88.9167 72.8C88.9167 74.1643 87.8135 75.2667 86.4583 75.2667C85.1032 75.2667 84 74.1643 84 72.8C84 71.4357 85.1032 70.3333 86.4583 70.3333C87.8136 70.3333 88.9167 71.4352 88.9167 72.8ZM102.75 72.8C102.75 74.1643 101.647 75.2667 100.292 75.2667C98.9365 75.2667 97.8333 74.1643 97.8333 72.8C97.8333 71.4357 98.9365 70.3333 100.292 70.3333C101.647 70.3333 102.75 71.4352 102.75 72.8ZM104.75 108.467H109.667V128.267C109.667 137.274 102.354 144.6 93.375 144.6H38.0417C29.0623 144.6 21.75 137.274 21.75 128.267V108.467H26.6667V128.267C26.6667 134.551 31.7663 139.667 38.0417 139.667H93.375C99.6503 139.667 104.75 134.551 104.75 128.267V108.467ZM26.6667 37.1333H21.75V17.3333C21.75 8.32644 29.0623 1 38.0417 1H93.375C102.354 1 109.667 8.32644 109.667 17.3333V37.1333H104.75V17.3333C104.75 11.0488 99.6503 5.93333 93.375 5.93333H38.0417C31.7663 5.93333 26.6667 11.0488 26.6667 17.3333V37.1333Z" fill="#D7B56D" stroke="black" stroke-width="2"/>
</svg>
